<svg xmlns="http://www.w3.org/2000/svg" width="32" height="32" viewBox="0 0 32 32" fill="none">
  <defs>
    <linearGradient id="logo-grad" x1="0%" y1="0%" x2="100%" y2="100%">
      <stop offset="0%" stop-color="#3b82f6" />
      <stop offset="100%" stop-color="#1d4ed8" />
    </linearGradient>
  </defs>
  <rect width="32" height="32" rx="8" fill="url(#logo-grad)" />
  <g transform="translate(4, 4)" stroke="#ffffff" stroke-width="2" stroke-linecap="round" stroke-linejoin="round">
    <path d="M7 16.3c2.2 0 4-1.83 4-4.05 0-1.16-.57-2.26-1.71-3.19S7.29 6.75 7 5.3c-.29 1.45-1.14 2.84-2.29 3.76S3 11.09 3 12.25c0 2.22 1.8 4.05 4 4.05z" />
    <path d="M17 18.5c1.37 0 2.5-1.11 2.5-2.5 0-1-.5-1.9-1.5-2.5C17 13 16 12 16 11c0 1-.5 2-1.5 2.5-.5.3-.8.7-1 1.1-.3.5-.5 1.1-.5 1.9 0 1.39 1.11 2.5 2.5 2.5z" />
  </g>
</svg>